<svg width="12" height="14" viewBox="0 0 12 14" fill="none" xmlns="http://www.w3.org/2000/svg">
<path d="M5.5 0V7H6.5V0H5.5Z" fill="white"/>
<path d="M1 7.81244C1 5.93059 2.03942 4.29082 3.57785 3.43714L3.09264 2.56274C1.24937 3.58557 0 5.55276 0 7.81244C0 11.1262 2.68629 13.8124 6 13.8124C9.31371 13.8124 12 11.1262 12 7.81244C12 5.59097 10.7925 3.65212 9.00036 2.61544L8.49964 3.48105C9.99545 4.34633 11 5.96237 11 7.81244C11 10.5739 8.76142 12.8124 6 12.8124C3.23858 12.8124 1 10.5739 1 7.81244Z" fill="white"/>
</svg>
