<svg width="1440" height="471" viewBox="0 0 1440 471" fill="none" xmlns="http://www.w3.org/2000/svg">
<rect y="41" width="1440" height="430" fill="url(#paint0_linear_136_1337)"/>
<path d="M1437.5 42C1407.58 35.3333 1317.83 2 1258 2C1198.17 2 1138.33 42 1078.5 42C1018.67 42 958.833 2 899 2C839.167 2 779.333 42 719.5 42C659.667 42 599.833 2 540 2C480.167 2 420.333 42 360.5 42C300.667 42 240.833 2 181 2C121.167 2 31.4166 35.3333 1.49997 42" fill="#FBE2FD"/>
<path d="M1437.5 42C1407.58 35.3333 1317.83 2 1258 2C1198.17 2 1138.33 42 1078.5 42C1018.67 42 958.833 2 899 2C839.167 2 779.333 42 719.5 42C659.667 42 599.833 2 540 2C480.167 2 420.333 42 360.5 42C300.667 42 240.833 2 181 2C121.167 2 31.4166 35.3333 1.49997 42" stroke="#FBE2FD" stroke-width="3" stroke-linecap="round" stroke-linejoin="round"/>
<rect y="147" width="1440" height="324" fill="url(#paint1_linear_136_1337)"/>
<path d="M1438.5 148C1408.56 141.333 1318.75 108 1258.87 108C1199 108 1139.12 148 1079.25 148C1019.37 148 959.5 108 899.625 108C839.75 108 779.875 148 720 148C660.125 148 600.25 108 540.375 108C480.501 108 420.626 148 360.751 148C300.876 148 241.001 108 181.126 108C121.251 108 31.4386 141.333 1.50115 148" fill="#FBD0FB"/>
<path d="M1438.5 148C1408.56 141.333 1318.75 108 1258.87 108C1199 108 1139.12 148 1079.25 148C1019.37 148 959.5 108 899.625 108C839.75 108 779.875 148 720 148C660.125 148 600.25 108 540.375 108C480.501 108 420.626 148 360.751 148C300.876 148 241.001 108 181.126 108C121.251 108 31.4386 141.333 1.50115 148" stroke="#FBD0FB" stroke-width="3" stroke-linecap="round" stroke-linejoin="round"/>
<defs>
<linearGradient id="paint0_linear_136_1337" x1="720" y1="41" x2="720" y2="471" gradientUnits="userSpaceOnUse">
<stop stop-color="#FBE2FD"/>
<stop offset="1" stop-color="white"/>
</linearGradient>
<linearGradient id="paint1_linear_136_1337" x1="720" y1="147" x2="720" y2="471" gradientUnits="userSpaceOnUse">
<stop stop-color="#FBD0FB"/>
<stop offset="1" stop-color="#F575EE"/>
</linearGradient>
</defs>
</svg>
